<svg width="389" height="70" viewBox="0 0 389 70" fill="none" xmlns="http://www.w3.org/2000/svg">
<rect x="93.1603" y="27.7426" width="106" height="7" rx="3.5" fill="#E471F7"/>
<rect x="193.785" y="28.7426" width="95" height="5" rx="2.5" fill="#ECC8F2"/>
<rect x="188.16" y="44.7426" width="95" height="5" rx="2.5" transform="rotate(-180 188.16 44.7426)" fill="#ECC8F2"/>
<rect x="288.785" y="45.7427" width="106" height="7" rx="3.5" transform="rotate(-180 288.785 45.7427)" fill="#E471F7"/>
<path d="M286.69 31.3411C318.073 31.3411 331.202 61.3581 369.207 50.3021C407.212 39.246 382.336 -16.0343 343.64 5.38679C304.944 26.8079 318.764 82.0883 222.023 66.1952C125.282 50.3021 95.5693 -7.74228 49.272 5.38679C2.9747 18.5159 -18.4464 61.3581 23.0138 55.8301C64.4741 50.3021 87.945 42.3928 94.8622 42.3928" stroke="#ECC8F2"/>
</svg>
